<svg width="33" height="32" viewBox="0 0 33 32" fill="none" xmlns="http://www.w3.org/2000/svg">
<path opacity="0.4" d="M24.4004 27.3331H23.0671V26.9998C23.0671 25.5331 21.8671 24.3331 20.4004 24.3331H17.4004V21.2798C17.0671 21.3198 16.7337 21.3331 16.4004 21.3331C16.0671 21.3331 15.7337 21.3198 15.4004 21.2798V24.3331H12.4004C10.9337 24.3331 9.73372 25.5331 9.73372 26.9998V27.3331H8.40039C7.85372 27.3331 7.40039 27.7865 7.40039 28.3331C7.40039 28.8798 7.85372 29.3331 8.40039 29.3331H24.4004C24.9471 29.3331 25.4004 28.8798 25.4004 28.3331C25.4004 27.7865 24.9471 27.3331 24.4004 27.3331Z" fill="#F4EBFF"/>
<path opacity="0.4" d="M7.75945 15.5198C6.87945 15.1865 6.10612 14.6398 5.49279 14.0265C4.25279 12.6532 3.43945 11.0132 3.43945 9.09317C3.43945 7.17317 4.94612 5.6665 6.86612 5.6665H7.61279C7.26612 6.37317 7.06612 7.15984 7.06612 7.99984V11.9998C7.06612 13.2532 7.30612 14.4398 7.75945 15.5198Z" fill="#F4EBFF"/>
<path opacity="0.4" d="M29.361 9.09317C29.361 11.0132 28.5477 12.6532 27.3077 14.0265C26.6944 14.6398 25.921 15.1865 25.041 15.5198C25.4943 14.4398 25.7343 13.2532 25.7343 11.9998V7.99984C25.7343 7.15984 25.5343 6.37317 25.1877 5.6665H25.9343C27.8543 5.6665 29.361 7.17317 29.361 9.09317Z" fill="#F4EBFF"/>
<path d="M20.3997 2.6665H12.3997C9.45307 2.6665 7.06641 5.05317 7.06641 7.99984V11.9998C7.06641 17.1598 11.2397 21.3332 16.3997 21.3332C21.5597 21.3332 25.7331 17.1598 25.7331 11.9998V7.99984C25.7331 5.05317 23.3464 2.6665 20.3997 2.6665ZM20.1864 11.2665L19.3597 12.2798C19.2264 12.4265 19.1331 12.7198 19.1464 12.9198L19.2264 14.2265C19.2797 15.0265 18.7064 15.4398 17.9597 15.1465L16.7464 14.6665C16.5597 14.5998 16.2397 14.5998 16.0531 14.6665L14.8397 15.1465C14.0931 15.4398 13.5197 15.0265 13.5731 14.2265L13.6531 12.9198C13.6664 12.7198 13.5731 12.4265 13.4397 12.2798L12.6131 11.2665C12.0931 10.6532 12.3197 9.97317 13.0931 9.77317L14.3597 9.45317C14.5597 9.39984 14.7997 9.21317 14.9064 9.03984L15.6131 7.9465C16.0531 7.2665 16.7464 7.2665 17.1864 7.9465L17.8931 9.03984C17.9997 9.21317 18.2397 9.39984 18.4397 9.45317L19.7064 9.77317C20.4797 9.97317 20.7064 10.6532 20.1864 11.2665Z" fill="#F4EBFF"/>
<path opacity="0.4" d="M20.188 11.2665L19.3614 12.2799C19.228 12.4265 19.1347 12.7199 19.148 12.9199L19.228 14.2265C19.2814 15.0265 18.708 15.4399 17.9614 15.1465L16.748 14.6665C16.5614 14.5999 16.2414 14.5999 16.0547 14.6665L14.8414 15.1465C14.0947 15.4399 13.5214 15.0265 13.5747 14.2265L13.6547 12.9199C13.668 12.7199 13.5747 12.4265 13.4414 12.2799L12.6147 11.2665C12.0947 10.6532 12.3214 9.97319 13.0947 9.77319L14.3614 9.45319C14.5614 9.39986 14.8014 9.21319 14.908 9.03986L15.6147 7.94652C16.0547 7.26652 16.748 7.26652 17.188 7.94652L17.8947 9.03986C18.0014 9.21319 18.2414 9.39986 18.4414 9.45319L19.708 9.77319C20.4814 9.97319 20.708 10.6532 20.188 11.2665Z" fill="#F4EBFF"/>
</svg>
