<svg width="35" height="34" viewBox="0 0 35 34" fill="none" xmlns="http://www.w3.org/2000/svg">
<path opacity="0.4" d="M23.7738 12.3598C23.6804 12.3465 23.5871 12.3465 23.4938 12.3598C21.4271 12.2932 19.7871 10.5998 19.7871 8.51984C19.7871 6.39984 21.5071 4.6665 23.6404 4.6665C25.7604 4.6665 27.4938 6.3865 27.4938 8.51984C27.4804 10.5998 25.8404 12.2932 23.7738 12.3598Z" fill="#F4EBFF"/>
<path opacity="0.4" d="M28.1199 21.6C26.6265 22.6 24.5332 22.9734 22.5999 22.72C23.1065 21.6267 23.3732 20.4134 23.3865 19.1334C23.3865 17.8 23.0932 16.5334 22.5332 15.4267C24.5065 15.1601 26.5999 15.5334 28.1065 16.5334C30.2132 17.92 30.2132 20.2 28.1199 21.6Z" fill="#F4EBFF"/>
<path opacity="0.4" d="M8.98757 12.3598C9.08091 12.3465 9.17424 12.3465 9.26758 12.3598C11.3342 12.2932 12.9742 10.5998 12.9742 8.51984C12.9742 6.39984 11.2542 4.6665 9.12091 4.6665C7.00091 4.6665 5.26758 6.3865 5.26758 8.51984C5.28091 10.5998 6.92091 12.2932 8.98757 12.3598Z" fill="#F4EBFF"/>
<path opacity="0.4" d="M9.13388 19.1332C9.13388 20.4265 9.41388 21.6532 9.92055 22.7598C8.04055 22.9598 6.08055 22.5598 4.64055 21.6132C2.53388 20.2132 2.53388 17.9331 4.64055 16.5331C6.06721 15.5731 8.08055 15.1865 9.97388 15.3998C9.42721 16.5198 9.13388 17.7865 9.13388 19.1332Z" fill="#F4EBFF"/>
<path d="M16.5608 23.16C16.4541 23.1467 16.3341 23.1467 16.2141 23.16C13.7608 23.08 11.8008 21.0667 11.8008 18.5867C11.8008 16.0533 13.8408 14 16.3875 14C18.9208 14 20.9741 16.0533 20.9741 18.5867C20.9741 21.0667 19.0274 23.08 16.5608 23.16Z" fill="#F4EBFF"/>
<path d="M12.2268 25.92C10.2135 27.2667 10.2135 29.48 12.2268 30.8134C14.5201 32.3467 18.2801 32.3467 20.5735 30.8134C22.5868 29.4667 22.5868 27.2534 20.5735 25.92C18.2935 24.3867 14.5335 24.3867 12.2268 25.92Z" fill="#F4EBFF"/>
</svg>
