<svg width="32" height="32" viewBox="0 0 32 32" fill="none" xmlns="http://www.w3.org/2000/svg">
<path d="M26.5327 18H5.46602C3.46602 18 2.66602 18.8533 2.66602 20.9733V26.36C2.66602 28.48 3.46602 29.3333 5.46602 29.3333H26.5327C28.5327 29.3333 29.3327 28.48 29.3327 26.36V20.9733C29.3327 18.8533 28.5327 18 26.5327 18Z" fill="#F4EBFF"/>
<path opacity="0.4" d="M17.1993 2.6665H5.46602C3.46602 2.6665 2.66602 3.51984 2.66602 5.63984V11.0265C2.66602 13.1465 3.46602 13.9998 5.46602 13.9998H17.1993C19.1993 13.9998 19.9993 13.1465 19.9993 11.0265V5.63984C19.9993 3.51984 19.1993 2.6665 17.1993 2.6665Z" fill="#F4EBFF"/>
</svg>
