<svg width="33" height="32" viewBox="0 0 33 32" fill="none" xmlns="http://www.w3.org/2000/svg">
<path d="M14.3199 17.28H17.4099V24.48C17.4099 25.54 18.7299 26.04 19.4299 25.24L26.9999 16.64C27.6599 15.89 27.1299 14.72 26.1299 14.72H23.0399V7.51997C23.0399 6.45997 21.7199 5.95997 21.0199 6.75997L13.4499 15.36C12.7999 16.11 13.3299 17.28 14.3199 17.28Z" fill="#F4EBFF"/>
<path opacity="0.4" d="M13.5 8.75H6.5C6.09 8.75 5.75 8.41 5.75 8C5.75 7.59 6.09 7.25 6.5 7.25H13.5C13.91 7.25 14.25 7.59 14.25 8C14.25 8.41 13.91 8.75 13.5 8.75Z" fill="#F4EBFF"/>
<path opacity="0.4" d="M12.5 24.75H6.5C6.09 24.75 5.75 24.41 5.75 24C5.75 23.59 6.09 23.25 6.5 23.25H12.5C12.91 23.25 13.25 23.59 13.25 24C13.25 24.41 12.91 24.75 12.5 24.75Z" fill="#F4EBFF"/>
<path opacity="0.4" d="M9.5 16.75H6.5C6.09 16.75 5.75 16.41 5.75 16C5.75 15.59 6.09 15.25 6.5 15.25H9.5C9.91 15.25 10.25 15.59 10.25 16C10.25 16.41 9.91 16.75 9.5 16.75Z" fill="#F4EBFF"/>
</svg>
