<svg width="24" height="25" viewBox="0 0 24 25" fill="none" xmlns="http://www.w3.org/2000/svg">
<path d="M16.7502 4.16V2.60001C16.7502 2.19001 16.4102 1.85001 16.0002 1.85001C15.5902 1.85001 15.2502 2.19001 15.2502 2.60001V4.10001H8.75022V2.60001C8.75022 2.19001 8.41022 1.85001 8.00022 1.85001C7.59022 1.85001 7.25022 2.19001 7.25022 2.60001V4.16C4.55022 4.41 3.24023 6.02 3.04023 8.41C3.02023 8.7 3.26023 8.94 3.54023 8.94H20.4602C20.7502 8.94 20.9902 8.69 20.9602 8.41C20.7602 6.02 19.4502 4.41 16.7502 4.16Z" fill="white"/>
<path opacity="0.4" d="M20 10.44C20.55 10.44 21 10.89 21 11.44V17.6C21 20.6 19.5 22.6 16 22.6H8C4.5 22.6 3 20.6 3 17.6V11.44C3 10.89 3.45 10.44 4 10.44H20Z" fill="white"/>
<path d="M14.8409 15.59L14.3409 16.1H14.3309L11.3009 19.13C11.1709 19.26 10.9009 19.4 10.7109 19.42L9.36091 19.62C8.87091 19.69 8.53093 19.34 8.60093 18.86L8.79093 17.5C8.82093 17.31 8.95091 17.05 9.08091 16.91L12.1209 13.88L12.6209 13.37C12.9509 13.04 13.3209 12.8 13.7209 12.8C14.0609 12.8 14.4309 12.96 14.8409 13.37C15.7409 14.27 15.4509 14.98 14.8409 15.59Z" fill="white"/>
</svg>
