<svg width="24" height="25" viewBox="0 0 24 25" fill="none" xmlns="http://www.w3.org/2000/svg">
<path d="M16.7502 3.6601V2.1001C16.7502 1.6901 16.4102 1.3501 16.0002 1.3501C15.5902 1.3501 15.2502 1.6901 15.2502 2.1001V3.6001H8.75024V2.1001C8.75024 1.6901 8.41024 1.3501 8.00024 1.3501C7.59024 1.3501 7.25024 1.6901 7.25024 2.1001V3.6601C4.55024 3.9101 3.24023 5.52009 3.04023 7.9101C3.02023 8.2001 3.26023 8.44009 3.54023 8.44009H20.4602C20.7502 8.44009 20.9902 8.1901 20.9602 7.9101C20.7602 5.52009 19.4502 3.9101 16.7502 3.6601Z" fill="#F4EBFF"/>
<path opacity="0.4" d="M21 10.9402V12.6802C21 13.2902 20.46 13.7602 19.86 13.6602C19.58 13.6202 19.29 13.5902 19 13.5902C15.97 13.5902 13.5 16.0602 13.5 19.0902C13.5 19.5502 13.68 20.1902 13.87 20.7702C14.09 21.4202 13.61 22.0902 12.92 22.0902H8C4.5 22.0902 3 20.0902 3 17.0902V10.9302C3 10.3802 3.45 9.93018 4 9.93018H20C20.55 9.94018 21 10.3902 21 10.9402Z" fill="#F4EBFF"/>
<path d="M8.5 15.1C8.24 15.1 7.98 14.99 7.79 14.81C7.61 14.62 7.5 14.36 7.5 14.1C7.5 13.84 7.61 13.58 7.79 13.39C8.02 13.16 8.37 13.05 8.7 13.12C8.76 13.13 8.82 13.15 8.88 13.18C8.94 13.2 9 13.23 9.06 13.27C9.11 13.31 9.16 13.35 9.21 13.39C9.39 13.58 9.5 13.84 9.5 14.1C9.5 14.36 9.39 14.62 9.21 14.81C9.16 14.85 9.11 14.89 9.06 14.93C9 14.97 8.94 15 8.88 15.02C8.82 15.05 8.76 15.07 8.7 15.08C8.63 15.09 8.56 15.1 8.5 15.1Z" fill="#F4EBFF"/>
<path d="M12 15.1003C11.74 15.1003 11.48 14.9903 11.29 14.8103C11.11 14.6203 11 14.3603 11 14.1003C11 13.8403 11.11 13.5803 11.29 13.3903C11.67 13.0203 12.34 13.0203 12.71 13.3903C12.89 13.5803 13 13.8403 13 14.1003C13 14.3603 12.89 14.6203 12.71 14.8103C12.52 14.9903 12.26 15.1003 12 15.1003Z" fill="#F4EBFF"/>
<path d="M8.5 18.6C8.24 18.6 7.98 18.49 7.79 18.31C7.61 18.12 7.5 17.86 7.5 17.6C7.5 17.34 7.61 17.08 7.79 16.89C7.89 16.8 7.99 16.73 8.12 16.68C8.49 16.52 8.93 16.61 9.21 16.89C9.39 17.08 9.5 17.34 9.5 17.6C9.5 17.86 9.39 18.12 9.21 18.31C9.02 18.49 8.76 18.6 8.5 18.6Z" fill="#F4EBFF"/>
<path d="M21.83 16.2701C20.27 14.7101 17.73 14.7101 16.17 16.2701C14.61 17.8301 14.61 20.3701 16.17 21.9301C17.73 23.4901 20.27 23.4901 21.83 21.9301C23.39 20.3701 23.39 17.8301 21.83 16.2701ZM21.07 19.6601C20.94 19.8001 20.75 19.8801 20.54 19.8801H19.8V20.6601C19.8 20.8701 19.72 21.0501 19.58 21.1901C19.44 21.3301 19.26 21.4101 19.05 21.4101C18.64 21.4101 18.3 21.0701 18.3 20.6601V19.8801H17.55C17.14 19.8801 16.8 19.5501 16.8 19.1301C16.8 18.7201 17.14 18.3801 17.55 18.3801H18.3V17.6701C18.3 17.2601 18.63 16.9201 19.05 16.9201C19.46 16.9201 19.8 17.2601 19.8 17.6701V18.3801H20.54C20.96 18.3801 21.29 18.7201 21.29 19.1301C21.29 19.3401 21.21 19.5301 21.07 19.6601Z" fill="#F4EBFF"/>
</svg>
