<svg width="24" height="25" viewBox="0 0 24 25" fill="none" xmlns="http://www.w3.org/2000/svg">
<path opacity="0.4" d="M22.0009 9.30996V14.89C22.0009 18.99 20.7509 20.24 16.6509 20.24H9.91094V17.22C9.91094 16.84 9.59094 16.52 9.21094 16.52V7.67996C9.59094 7.67996 9.91094 7.35996 9.91094 6.97996V3.95996H16.6509C20.7509 3.95996 22.0009 5.20996 22.0009 9.30996Z" fill="#F4EBFF"/>
<path d="M18.4692 12.0002C18.6392 11.8402 18.6992 11.5902 18.6292 11.3702C18.5592 11.1402 18.3692 10.9802 18.1292 10.9502L16.8492 10.7602C16.7992 10.7502 16.7592 10.7202 16.7392 10.6802L16.1692 9.52018C16.0692 9.31018 15.8492 9.18018 15.6192 9.18018C15.3792 9.18018 15.1692 9.31018 15.0592 9.52018L14.4892 10.6802C14.4692 10.7302 14.4192 10.7602 14.3692 10.7602L13.0892 10.9502C12.8592 10.9802 12.6592 11.1502 12.5892 11.3702C12.5192 11.6002 12.5792 11.8402 12.7492 12.0002L13.6792 12.9002C13.7192 12.9302 13.7292 12.9902 13.7192 13.0402L13.4992 14.3102C13.4592 14.5402 13.5492 14.7802 13.7492 14.9102C13.8592 14.9902 13.9792 15.0302 14.1092 15.0302C14.2092 15.0302 14.3092 15.0102 14.3992 14.9602L15.5492 14.3602C15.5892 14.3402 15.6492 14.3402 15.6892 14.3602L16.8392 14.9602C17.0492 15.0702 17.2992 15.0502 17.4892 14.9102C17.6792 14.7702 17.7792 14.5402 17.7392 14.3002L17.5192 13.0302C17.5092 12.9802 17.5292 12.9302 17.5592 12.8902L18.4692 12.0002Z" fill="#F4EBFF"/>
<path d="M9.21061 7.67996V16.52C8.83061 16.52 8.51061 16.84 8.51061 17.22V20.24H7.35061C3.40061 20.24 2.10061 19.06 2.01061 15.38C2.00061 15.19 2.08061 15.01 2.21061 14.88C2.34061 14.74 2.53061 14.67 2.71061 14.67C4.11061 14.67 5.26061 13.52 5.26061 12.11C5.26061 10.7 4.11061 9.53996 2.71061 9.53996C2.51061 9.53996 2.34061 9.46996 2.21061 9.32996C2.08061 9.19996 2.00061 9.00996 2.01061 8.82996C2.10061 5.13996 3.40061 3.95996 7.35061 3.95996H8.51061V6.97996C8.51061 7.36996 8.83061 7.67996 9.21061 7.67996Z" fill="#F4EBFF"/>
</svg>
