<svg width="24" height="25" viewBox="0 0 24 25" fill="none" xmlns="http://www.w3.org/2000/svg">
<path opacity="0.4" d="M21.0802 8.68013V15.5201C21.0802 16.6401 20.4802 17.6801 19.5102 18.2501L13.5702 21.6801C12.6002 22.2401 11.4002 22.2401 10.4202 21.6801L4.48016 18.2501C3.51016 17.6901 2.91016 16.6501 2.91016 15.5201V8.68013C2.91016 7.56013 3.51016 6.52009 4.48016 5.95009L10.4202 2.5201C11.3902 1.9601 12.5902 1.9601 13.5702 2.5201L19.5102 5.95009C20.4802 6.52009 21.0802 7.55013 21.0802 8.68013Z" fill="#F4EBFF"/>
<path d="M11.9999 12.0999C13.2867 12.0999 14.3299 11.0567 14.3299 9.7699C14.3299 8.48307 13.2867 7.43994 11.9999 7.43994C10.7131 7.43994 9.66992 8.48307 9.66992 9.7699C9.66992 11.0567 10.7131 12.0999 11.9999 12.0999Z" fill="#F4EBFF"/>
<path d="M14.6792 16.7599C15.4892 16.7599 15.9592 15.86 15.5092 15.19C14.8292 14.18 13.5092 13.5 11.9992 13.5C10.4892 13.5 9.16919 14.18 8.48919 15.19C8.03919 15.86 8.50919 16.7599 9.31919 16.7599H14.6792Z" fill="#F4EBFF"/>
</svg>
