<svg width="12" height="13" viewBox="0 0 12 13" fill="none" xmlns="http://www.w3.org/2000/svg">
<path d="M6.5007 5.97501C6.4057 5.97501 6.3107 5.94001 6.2357 5.86501C6.0907 5.72001 6.0907 5.48001 6.2357 5.33501L10.3357 1.23501C10.4807 1.09001 10.7207 1.09001 10.8657 1.23501C11.0107 1.38001 11.0107 1.62001 10.8657 1.76501L6.7657 5.86501C6.6907 5.94001 6.5957 5.97501 6.5007 5.97501Z" fill="white"/>
<path d="M10.9996 3.87501C10.7946 3.87501 10.6246 3.70501 10.6246 3.50001V1.47501H8.59961C8.39461 1.47501 8.22461 1.30501 8.22461 1.10001C8.22461 0.895006 8.39461 0.725006 8.59961 0.725006H10.9996C11.2046 0.725006 11.3746 0.895006 11.3746 1.10001V3.50001C11.3746 3.70501 11.2046 3.87501 10.9996 3.87501Z" fill="white"/>
<path d="M7.5 11.475H4.5C1.785 11.475 0.625 10.315 0.625 7.60001V4.60001C0.625 1.88501 1.785 0.725006 4.5 0.725006H5.5C5.705 0.725006 5.875 0.895006 5.875 1.10001C5.875 1.30501 5.705 1.47501 5.5 1.47501H4.5C2.195 1.47501 1.375 2.29501 1.375 4.60001V7.60001C1.375 9.90501 2.195 10.725 4.5 10.725H7.5C9.805 10.725 10.625 9.90501 10.625 7.60001V6.60001C10.625 6.39501 10.795 6.22501 11 6.22501C11.205 6.22501 11.375 6.39501 11.375 6.60001V7.60001C11.375 10.315 10.215 11.475 7.5 11.475Z" fill="white"/>
</svg>
