<svg width="33" height="32" viewBox="0 0 33 32" fill="none" xmlns="http://www.w3.org/2000/svg">
<path opacity="0.4" d="M27.0677 10.9998V23.9998C27.0677 27.9998 24.681 29.3332 21.7344 29.3332H11.0677C8.12104 29.3332 5.73438 27.9998 5.73438 23.9998V10.9998C5.73438 6.6665 8.12104 5.6665 11.0677 5.6665C11.0677 6.49317 11.401 7.23983 11.9477 7.7865C12.4943 8.33317 13.241 8.6665 14.0677 8.6665H18.7344C20.3877 8.6665 21.7344 7.31984 21.7344 5.6665C24.681 5.6665 27.0677 6.6665 27.0677 10.9998Z" fill="#F4EBFF"/>
<path d="M21.7331 5.6665C21.7331 7.31984 20.3864 8.6665 18.7331 8.6665H14.0664C13.2397 8.6665 12.493 8.33317 11.9464 7.7865C11.3997 7.23983 11.0664 6.49317 11.0664 5.6665C11.0664 4.01317 12.4131 2.6665 14.0664 2.6665H18.7331C19.5597 2.6665 20.3064 2.99984 20.8531 3.54651C21.3998 4.09318 21.7331 4.83984 21.7331 5.6665Z" fill="#F4EBFF"/>
<path d="M16.3997 18.3335H11.0664C10.5197 18.3335 10.0664 17.8802 10.0664 17.3335C10.0664 16.7868 10.5197 16.3335 11.0664 16.3335H16.3997C16.9464 16.3335 17.3997 16.7868 17.3997 17.3335C17.3997 17.8802 16.9464 18.3335 16.3997 18.3335Z" fill="#F4EBFF"/>
<path d="M21.7331 23.6665H11.0664C10.5197 23.6665 10.0664 23.2132 10.0664 22.6665C10.0664 22.1198 10.5197 21.6665 11.0664 21.6665H21.7331C22.2797 21.6665 22.7331 22.1198 22.7331 22.6665C22.7331 23.2132 22.2797 23.6665 21.7331 23.6665Z" fill="#F4EBFF"/>
</svg>
