<svg width="90" height="23" viewBox="0 0 90 23" fill="none" xmlns="http://www.w3.org/2000/svg">
<rect x="0.5" y="1.10001" width="89" height="21" rx="10.5" fill="url(#paint0_linear_887_2439)" fill-opacity="0.3"/>
<path d="M13.9402 15.72C13.2442 15.72 12.6042 15.6 12.0202 15.36C11.4362 15.12 10.9282 14.788 10.4962 14.364C10.0722 13.932 9.7442 13.424 9.5122 12.84C9.2802 12.248 9.1642 11.604 9.1642 10.908C9.1642 10.212 9.2802 9.57201 9.5122 8.98801C9.7442 8.40401 10.0722 7.90001 10.4962 7.47601C10.9282 7.04401 11.4362 6.70801 12.0202 6.46801C12.6042 6.22801 13.2442 6.10801 13.9402 6.10801C14.6362 6.10801 15.2722 6.22801 15.8482 6.46801C16.4322 6.70801 16.9402 7.04401 17.3722 7.47601C17.8042 7.90001 18.1362 8.40401 18.3682 8.98801C18.6002 9.57201 18.7162 10.212 18.7162 10.908C18.7162 11.604 18.6002 12.248 18.3682 12.84C18.1362 13.424 17.8042 13.932 17.3722 14.364C16.9402 14.788 16.4322 15.12 15.8482 15.36C15.2722 15.6 14.6362 15.72 13.9402 15.72ZM13.9402 14.76C14.4842 14.76 14.9842 14.664 15.4402 14.472C15.9042 14.272 16.3042 14 16.6402 13.656C16.9842 13.304 17.2482 12.896 17.4322 12.432C17.6162 11.96 17.7082 11.452 17.7082 10.908C17.7082 10.364 17.6162 9.86001 17.4322 9.39601C17.2482 8.92401 16.9842 8.51601 16.6402 8.17201C16.3042 7.82001 15.9042 7.54801 15.4402 7.35601C14.9842 7.16401 14.4842 7.06801 13.9402 7.06801C13.3962 7.06801 12.8922 7.16401 12.4282 7.35601C11.9642 7.54801 11.5642 7.82001 11.2282 8.17201C10.8922 8.51601 10.6282 8.92401 10.4362 9.39601C10.2522 9.86001 10.1602 10.364 10.1602 10.908C10.1602 11.452 10.2522 11.96 10.4362 12.432C10.6282 12.896 10.8922 13.304 11.2282 13.656C11.5642 14 11.9642 14.272 12.4282 14.472C12.8922 14.664 13.3962 14.76 13.9402 14.76ZM23.371 15.672C22.803 15.672 22.295 15.556 21.847 15.324C21.407 15.084 21.059 14.736 20.803 14.28C20.547 13.824 20.419 13.264 20.419 12.6V9.54001C20.419 9.39601 20.467 9.27601 20.563 9.18001C20.659 9.08401 20.779 9.03601 20.923 9.03601C21.067 9.03601 21.187 9.08401 21.283 9.18001C21.379 9.27601 21.427 9.39601 21.427 9.54001V12.6C21.427 13.088 21.519 13.488 21.703 13.8C21.887 14.104 22.135 14.336 22.447 14.496C22.759 14.648 23.111 14.724 23.503 14.724C23.879 14.724 24.219 14.652 24.523 14.508C24.827 14.356 25.067 14.156 25.243 13.908C25.419 13.652 25.507 13.36 25.507 13.032H26.191C26.175 13.536 26.043 13.988 25.795 14.388C25.547 14.78 25.211 15.092 24.787 15.324C24.363 15.556 23.891 15.672 23.371 15.672ZM26.011 15.6C25.859 15.6 25.735 15.556 25.639 15.468C25.551 15.372 25.507 15.244 25.507 15.084V9.54001C25.507 9.38801 25.551 9.26801 25.639 9.18001C25.735 9.08401 25.859 9.03601 26.011 9.03601C26.163 9.03601 26.287 9.08401 26.383 9.18001C26.479 9.26801 26.527 9.38801 26.527 9.54001V15.084C26.527 15.244 26.479 15.372 26.383 15.468C26.287 15.556 26.163 15.6 26.011 15.6ZM31.1915 15.6C30.7755 15.6 30.4035 15.5 30.0755 15.3C29.7475 15.1 29.4875 14.824 29.2955 14.472C29.1115 14.12 29.0195 13.724 29.0195 13.284V7.45201C29.0195 7.30801 29.0635 7.18801 29.1515 7.09201C29.2475 6.99601 29.3715 6.94801 29.5235 6.94801C29.6675 6.94801 29.7875 6.99601 29.8835 7.09201C29.9795 7.18801 30.0275 7.30801 30.0275 7.45201V13.284C30.0275 13.66 30.1355 13.972 30.3515 14.22C30.5755 14.468 30.8555 14.592 31.1915 14.592H31.5515C31.6795 14.592 31.7875 14.64 31.8755 14.736C31.9635 14.832 32.0075 14.952 32.0075 15.096C32.0075 15.248 31.9515 15.372 31.8395 15.468C31.7355 15.556 31.5995 15.6 31.4315 15.6H31.1915ZM28.3115 10.152C28.1755 10.152 28.0635 10.112 27.9755 10.032C27.8875 9.94401 27.8435 9.84001 27.8435 9.72001C27.8435 9.59201 27.8875 9.48801 27.9755 9.40801C28.0635 9.32001 28.1755 9.27601 28.3115 9.27601H31.2755C31.4115 9.27601 31.5235 9.32001 31.6115 9.40801C31.6995 9.48801 31.7435 9.59201 31.7435 9.72001C31.7435 9.84001 31.6995 9.94401 31.6115 10.032C31.5235 10.112 31.4115 10.152 31.2755 10.152H28.3115ZM40.0153 15.66C39.3673 15.66 38.7913 15.516 38.2873 15.228C37.7913 14.94 37.3993 14.544 37.1113 14.04C36.8233 13.536 36.6793 12.964 36.6793 12.324C36.6793 11.676 36.8233 11.1 37.1113 10.596C37.3993 10.092 37.7913 9.69601 38.2873 9.40801C38.7913 9.12001 39.3673 8.97601 40.0153 8.97601C40.6553 8.97601 41.2233 9.12001 41.7193 9.40801C42.2153 9.69601 42.6073 10.092 42.8953 10.596C43.1833 11.1 43.3313 11.676 43.3393 12.324C43.3393 12.964 43.1953 13.536 42.9073 14.04C42.6193 14.544 42.2233 14.94 41.7193 15.228C41.2233 15.516 40.6553 15.66 40.0153 15.66ZM40.0153 14.748C40.4633 14.748 40.8633 14.644 41.2153 14.436C41.5673 14.22 41.8433 13.932 42.0433 13.572C42.2433 13.204 42.3433 12.788 42.3433 12.324C42.3433 11.86 42.2433 11.444 42.0433 11.076C41.8433 10.708 41.5673 10.42 41.2153 10.212C40.8633 9.99601 40.4633 9.88801 40.0153 9.88801C39.5673 9.88801 39.1633 9.99601 38.8033 10.212C38.4513 10.42 38.1713 10.708 37.9633 11.076C37.7633 11.444 37.6633 11.86 37.6633 12.324C37.6633 12.788 37.7633 13.204 37.9633 13.572C38.1713 13.932 38.4513 14.22 38.8033 14.436C39.1633 14.644 39.5673 14.748 40.0153 14.748ZM45.9166 15.6C45.7886 15.6 45.6766 15.556 45.5806 15.468C45.4846 15.372 45.4366 15.244 45.4366 15.084V9.06001C45.4366 8.49201 45.5366 7.99601 45.7366 7.57201C45.9366 7.14801 46.2286 6.82001 46.6126 6.58801C47.0046 6.34801 47.4686 6.22801 48.0046 6.22801C48.1566 6.22801 48.2806 6.27201 48.3766 6.36001C48.4726 6.44801 48.5206 6.55601 48.5206 6.68401C48.5206 6.82001 48.4726 6.93201 48.3766 7.02001C48.2806 7.10801 48.1566 7.15201 48.0046 7.15201C47.6686 7.15201 47.3846 7.23201 47.1526 7.39201C46.9206 7.54401 46.7446 7.76001 46.6246 8.04001C46.5046 8.31201 46.4446 8.62801 46.4446 8.98801V15.084C46.4446 15.244 46.3966 15.372 46.3006 15.468C46.2126 15.556 46.0846 15.6 45.9166 15.6ZM44.7406 10.152C44.5966 10.152 44.4806 10.112 44.3926 10.032C44.3126 9.94401 44.2726 9.84001 44.2726 9.72001C44.2726 9.59201 44.3126 9.48801 44.3926 9.40801C44.4806 9.32001 44.5966 9.27601 44.7406 9.27601H47.8246C47.9606 9.27601 48.0686 9.32001 48.1486 9.40801C48.2366 9.48801 48.2806 9.59201 48.2806 9.72001C48.2806 9.84001 48.2366 9.94401 48.1486 10.032C48.0686 10.112 47.9606 10.152 47.8246 10.152H44.7406ZM53.6828 15.6C53.5308 15.6 53.4068 15.552 53.3108 15.456C53.2148 15.36 53.1668 15.236 53.1668 15.084V6.74401C53.1668 6.59201 53.2148 6.46801 53.3108 6.37201C53.4068 6.27601 53.5308 6.22801 53.6828 6.22801H55.8428C56.5308 6.22801 57.1588 6.34401 57.7268 6.57601C58.3028 6.80001 58.7988 7.12401 59.2148 7.54801C59.6308 7.96401 59.9508 8.45601 60.1748 9.02401C60.3988 9.59201 60.5108 10.22 60.5108 10.908C60.5108 11.596 60.3988 12.228 60.1748 12.804C59.9508 13.372 59.6308 13.868 59.2148 14.292C58.7988 14.708 58.3028 15.032 57.7268 15.264C57.1588 15.488 56.5308 15.6 55.8428 15.6H53.6828ZM54.1988 14.676H55.8428C56.5628 14.676 57.1948 14.516 57.7388 14.196C58.2908 13.868 58.7228 13.42 59.0348 12.852C59.3468 12.284 59.5028 11.636 59.5028 10.908C59.5028 10.18 59.3468 9.53201 59.0348 8.96401C58.7228 8.39601 58.2908 7.95201 57.7388 7.63201C57.1948 7.31201 56.5628 7.15201 55.8428 7.15201H54.1988V14.676ZM65.1838 15.66C64.5758 15.66 64.0318 15.516 63.5518 15.228C63.0718 14.932 62.6918 14.532 62.4118 14.028C62.1318 13.524 61.9918 12.956 61.9918 12.324C61.9918 11.684 62.1358 11.112 62.4238 10.608C62.7198 10.104 63.1198 9.70801 63.6238 9.42001C64.1278 9.12401 64.6958 8.97601 65.3278 8.97601C65.9518 8.97601 66.5118 9.12401 67.0078 9.42001C67.5118 9.70801 67.9078 10.104 68.1958 10.608C68.4918 11.112 68.6438 11.684 68.6518 12.324L68.2438 12.528C68.2438 13.12 68.1078 13.652 67.8358 14.124C67.5718 14.596 67.2078 14.972 66.7438 15.252C66.2878 15.524 65.7678 15.66 65.1838 15.66ZM65.3278 14.748C65.7758 14.748 66.1718 14.644 66.5158 14.436C66.8678 14.22 67.1438 13.928 67.3438 13.56C67.5518 13.192 67.6558 12.78 67.6558 12.324C67.6558 11.86 67.5518 11.448 67.3438 11.088C67.1438 10.72 66.8678 10.428 66.5158 10.212C66.1718 9.99601 65.7758 9.88801 65.3278 9.88801C64.8878 9.88801 64.4878 9.99601 64.1278 10.212C63.7758 10.428 63.4958 10.72 63.2878 11.088C63.0798 11.448 62.9758 11.86 62.9758 12.324C62.9758 12.78 63.0798 13.192 63.2878 13.56C63.4958 13.928 63.7758 14.22 64.1278 14.436C64.4878 14.644 64.8878 14.748 65.3278 14.748ZM68.1358 15.6C67.9918 15.6 67.8678 15.556 67.7638 15.468C67.6678 15.372 67.6198 15.248 67.6198 15.096V13.116L67.8478 12.072L68.6518 12.324V15.096C68.6518 15.248 68.6038 15.372 68.5078 15.468C68.4118 15.556 68.2878 15.6 68.1358 15.6ZM72.9571 15.6C72.5411 15.6 72.1691 15.5 71.8411 15.3C71.5131 15.1 71.2531 14.824 71.0611 14.472C70.8771 14.12 70.7851 13.724 70.7851 13.284V7.45201C70.7851 7.30801 70.8291 7.18801 70.9171 7.09201C71.0131 6.99601 71.1371 6.94801 71.2891 6.94801C71.4331 6.94801 71.5531 6.99601 71.6491 7.09201C71.7451 7.18801 71.7931 7.30801 71.7931 7.45201V13.284C71.7931 13.66 71.9011 13.972 72.1171 14.22C72.3411 14.468 72.6211 14.592 72.9571 14.592H73.3171C73.4451 14.592 73.5531 14.64 73.6411 14.736C73.7291 14.832 73.7731 14.952 73.7731 15.096C73.7731 15.248 73.7171 15.372 73.6051 15.468C73.5011 15.556 73.3651 15.6 73.1971 15.6H72.9571ZM70.0771 10.152C69.9411 10.152 69.8291 10.112 69.7411 10.032C69.6531 9.94401 69.6091 9.84001 69.6091 9.72001C69.6091 9.59201 69.6531 9.48801 69.7411 9.40801C69.8291 9.32001 69.9411 9.27601 70.0771 9.27601H73.0411C73.1771 9.27601 73.2891 9.32001 73.3771 9.40801C73.4651 9.48801 73.5091 9.59201 73.5091 9.72001C73.5091 9.84001 73.4651 9.94401 73.3771 10.032C73.2891 10.112 73.1771 10.152 73.0411 10.152H70.0771ZM78.2893 15.66C77.6333 15.66 77.0533 15.52 76.5493 15.24C76.0453 14.952 75.6493 14.556 75.3613 14.052C75.0733 13.548 74.9293 12.972 74.9293 12.324C74.9293 11.668 75.0653 11.092 75.3373 10.596C75.6093 10.092 75.9813 9.69601 76.4533 9.40801C76.9333 9.12001 77.4853 8.97601 78.1093 8.97601C78.7173 8.97601 79.2453 9.11601 79.6933 9.39601C80.1493 9.66801 80.4973 10.048 80.7373 10.536C80.9853 11.024 81.1093 11.58 81.1093 12.204C81.1093 12.34 81.0653 12.452 80.9773 12.54C80.8893 12.62 80.7773 12.66 80.6413 12.66H75.6253V11.832H80.7013L80.1853 12.192C80.1933 11.752 80.1133 11.356 79.9453 11.004C79.7773 10.652 79.5373 10.376 79.2253 10.176C78.9133 9.97601 78.5413 9.87601 78.1093 9.87601C77.6533 9.87601 77.2533 9.98001 76.9093 10.188C76.5733 10.396 76.3133 10.688 76.1293 11.064C75.9533 11.432 75.8653 11.852 75.8653 12.324C75.8653 12.796 75.9693 13.216 76.1773 13.584C76.3853 13.952 76.6693 14.24 77.0293 14.448C77.3973 14.656 77.8173 14.76 78.2893 14.76C78.5613 14.76 78.8373 14.712 79.1173 14.616C79.4053 14.52 79.6333 14.4 79.8013 14.256C79.8973 14.184 80.0053 14.148 80.1253 14.148C80.2533 14.14 80.3573 14.172 80.4373 14.244C80.5573 14.348 80.6173 14.46 80.6173 14.58C80.6253 14.7 80.5733 14.804 80.4613 14.892C80.1973 15.116 79.8613 15.3 79.4533 15.444C79.0453 15.588 78.6573 15.66 78.2893 15.66Z" fill="white"/>
<rect x="0.5" y="1.10001" width="89" height="21" rx="10.5" stroke="url(#paint1_linear_887_2439)"/>
<defs>
<linearGradient id="paint0_linear_887_2439" x1="18.7248" y1="0.60001" x2="63.2629" y2="26.9535" gradientUnits="userSpaceOnUse">
<stop stop-color="#4441EC"/>
<stop offset="1" stop-color="#804BF2"/>
</linearGradient>
<linearGradient id="paint1_linear_887_2439" x1="32.6174" y1="-3.69268" x2="55.7129" y2="32.7048" gradientUnits="userSpaceOnUse">
<stop stop-color="#634CF3"/>
<stop offset="1" stop-color="#5E3BC4"/>
</linearGradient>
</defs>
</svg>
