<svg width="720" height="560" viewBox="0 0 720 560" fill="none" xmlns="http://www.w3.org/2000/svg">
<mask id="mask0_130_3262" style="mask-type:alpha" maskUnits="userSpaceOnUse" x="-24" y="-208" width="768" height="768">
<rect width="768" height="768" transform="translate(-24 -208)" fill="url(#paint0_radial_130_3262)"/>
</mask>
<g mask="url(#mask0_130_3262)">
<g clip-path="url(#clip0_130_3262)">
<g clip-path="url(#clip1_130_3262)">
<line x1="24.5" y1="-208" x2="24.5" y2="560" stroke="url(#paint1_linear_130_3262)"/>
<line x1="72.5" y1="-208" x2="72.5" y2="560" stroke="url(#paint2_linear_130_3262)"/>
<line x1="120.5" y1="-208" x2="120.5" y2="560" stroke="url(#paint3_linear_130_3262)"/>
<line x1="168.5" y1="-208" x2="168.5" y2="560" stroke="url(#paint4_linear_130_3262)"/>
<line x1="216.5" y1="-208" x2="216.5" y2="560" stroke="url(#paint5_linear_130_3262)"/>
<line x1="264.5" y1="-208" x2="264.5" y2="560" stroke="url(#paint6_linear_130_3262)"/>
<line x1="312.5" y1="-208" x2="312.5" y2="560" stroke="url(#paint7_linear_130_3262)"/>
<line x1="360.5" y1="-208" x2="360.5" y2="560" stroke="url(#paint8_linear_130_3262)"/>
<line x1="408.5" y1="-208" x2="408.5" y2="560" stroke="url(#paint9_linear_130_3262)"/>
<line x1="456.5" y1="-208" x2="456.5" y2="560" stroke="url(#paint10_linear_130_3262)"/>
<line x1="504.5" y1="-208" x2="504.5" y2="560" stroke="url(#paint11_linear_130_3262)"/>
<line x1="552.5" y1="-208" x2="552.5" y2="560" stroke="url(#paint12_linear_130_3262)"/>
<line x1="600.5" y1="-208" x2="600.5" y2="560" stroke="url(#paint13_linear_130_3262)"/>
<line x1="648.5" y1="-208" x2="648.5" y2="560" stroke="url(#paint14_linear_130_3262)"/>
<line x1="696.5" y1="-208" x2="696.5" y2="560" stroke="url(#paint15_linear_130_3262)"/>
</g>
<rect x="-23.5" y="-207.5" width="767" height="767" stroke="url(#paint16_linear_130_3262)"/>
<g clip-path="url(#clip2_130_3262)">
<line x1="-24" y1="31.5" x2="744" y2="31.5" stroke="url(#paint17_linear_130_3262)"/>
<line x1="-24" y1="79.5" x2="744" y2="79.5" stroke="url(#paint18_linear_130_3262)"/>
<line x1="-24" y1="127.5" x2="744" y2="127.5" stroke="url(#paint19_linear_130_3262)"/>
<line x1="-24" y1="175.5" x2="744" y2="175.5" stroke="url(#paint20_linear_130_3262)"/>
<line x1="-24" y1="223.5" x2="744" y2="223.5" stroke="url(#paint21_linear_130_3262)"/>
<line x1="-24" y1="271.5" x2="744" y2="271.5" stroke="url(#paint22_linear_130_3262)"/>
<line x1="-24" y1="319.5" x2="744" y2="319.5" stroke="url(#paint23_linear_130_3262)"/>
<line x1="-24" y1="367.5" x2="744" y2="367.5" stroke="url(#paint24_linear_130_3262)"/>
<line x1="-24" y1="415.5" x2="744" y2="415.5" stroke="url(#paint25_linear_130_3262)"/>
<line x1="-24" y1="463.5" x2="744" y2="463.5" stroke="url(#paint26_linear_130_3262)"/>
<line x1="-24" y1="511.5" x2="744" y2="511.5" stroke="url(#paint27_linear_130_3262)"/>
<line x1="-24" y1="559.5" x2="744" y2="559.5" stroke="url(#paint28_linear_130_3262)"/>
</g>
<rect x="-23.5" y="-207.5" width="767" height="767" stroke="url(#paint29_linear_130_3262)"/>
</g>
</g>
<defs>
<radialGradient id="paint0_radial_130_3262" cx="0" cy="0" r="1" gradientUnits="userSpaceOnUse" gradientTransform="translate(384 384) rotate(90) scale(384 384)">
<stop/>
<stop offset="1" stop-opacity="0"/>
</radialGradient>
<linearGradient id="paint1_linear_130_3262" x1="24" y1="-48.2148" x2="19.3811" y2="-48.1732" gradientUnits="userSpaceOnUse">
<stop stop-color="#4441EC"/>
<stop offset="1" stop-color="#804BF2"/>
</linearGradient>
<linearGradient id="paint2_linear_130_3262" x1="72" y1="-48.2148" x2="67.3811" y2="-48.1732" gradientUnits="userSpaceOnUse">
<stop stop-color="#4441EC"/>
<stop offset="1" stop-color="#804BF2"/>
</linearGradient>
<linearGradient id="paint3_linear_130_3262" x1="120" y1="-48.2148" x2="115.381" y2="-48.1732" gradientUnits="userSpaceOnUse">
<stop stop-color="#4441EC"/>
<stop offset="1" stop-color="#804BF2"/>
</linearGradient>
<linearGradient id="paint4_linear_130_3262" x1="168" y1="-48.2148" x2="163.381" y2="-48.1732" gradientUnits="userSpaceOnUse">
<stop stop-color="#4441EC"/>
<stop offset="1" stop-color="#804BF2"/>
</linearGradient>
<linearGradient id="paint5_linear_130_3262" x1="216" y1="-48.2148" x2="211.381" y2="-48.1732" gradientUnits="userSpaceOnUse">
<stop stop-color="#4441EC"/>
<stop offset="1" stop-color="#804BF2"/>
</linearGradient>
<linearGradient id="paint6_linear_130_3262" x1="264" y1="-48.2148" x2="259.381" y2="-48.1732" gradientUnits="userSpaceOnUse">
<stop stop-color="#4441EC"/>
<stop offset="1" stop-color="#804BF2"/>
</linearGradient>
<linearGradient id="paint7_linear_130_3262" x1="312" y1="-48.2148" x2="307.381" y2="-48.1732" gradientUnits="userSpaceOnUse">
<stop stop-color="#4441EC"/>
<stop offset="1" stop-color="#804BF2"/>
</linearGradient>
<linearGradient id="paint8_linear_130_3262" x1="360" y1="-48.2148" x2="355.381" y2="-48.1732" gradientUnits="userSpaceOnUse">
<stop stop-color="#4441EC"/>
<stop offset="1" stop-color="#804BF2"/>
</linearGradient>
<linearGradient id="paint9_linear_130_3262" x1="408" y1="-48.2148" x2="403.381" y2="-48.1732" gradientUnits="userSpaceOnUse">
<stop stop-color="#4441EC"/>
<stop offset="1" stop-color="#804BF2"/>
</linearGradient>
<linearGradient id="paint10_linear_130_3262" x1="456" y1="-48.2148" x2="451.381" y2="-48.1732" gradientUnits="userSpaceOnUse">
<stop stop-color="#4441EC"/>
<stop offset="1" stop-color="#804BF2"/>
</linearGradient>
<linearGradient id="paint11_linear_130_3262" x1="504" y1="-48.2148" x2="499.381" y2="-48.1732" gradientUnits="userSpaceOnUse">
<stop stop-color="#4441EC"/>
<stop offset="1" stop-color="#804BF2"/>
</linearGradient>
<linearGradient id="paint12_linear_130_3262" x1="552" y1="-48.2148" x2="547.381" y2="-48.1732" gradientUnits="userSpaceOnUse">
<stop stop-color="#4441EC"/>
<stop offset="1" stop-color="#804BF2"/>
</linearGradient>
<linearGradient id="paint13_linear_130_3262" x1="600" y1="-48.2148" x2="595.381" y2="-48.1732" gradientUnits="userSpaceOnUse">
<stop stop-color="#4441EC"/>
<stop offset="1" stop-color="#804BF2"/>
</linearGradient>
<linearGradient id="paint14_linear_130_3262" x1="648" y1="-48.2148" x2="643.381" y2="-48.1732" gradientUnits="userSpaceOnUse">
<stop stop-color="#4441EC"/>
<stop offset="1" stop-color="#804BF2"/>
</linearGradient>
<linearGradient id="paint15_linear_130_3262" x1="696" y1="-48.2148" x2="691.381" y2="-48.1732" gradientUnits="userSpaceOnUse">
<stop stop-color="#4441EC"/>
<stop offset="1" stop-color="#804BF2"/>
</linearGradient>
<linearGradient id="paint16_linear_130_3262" x1="135.785" y1="-208" x2="638.394" y2="-135.303" gradientUnits="userSpaceOnUse">
<stop stop-color="#4441EC"/>
<stop offset="1" stop-color="#804BF2"/>
</linearGradient>
<linearGradient id="paint17_linear_130_3262" x1="135.785" y1="32" x2="135.827" y2="36.6189" gradientUnits="userSpaceOnUse">
<stop stop-color="#4441EC"/>
<stop offset="1" stop-color="#804BF2"/>
</linearGradient>
<linearGradient id="paint18_linear_130_3262" x1="135.785" y1="80" x2="135.827" y2="84.6189" gradientUnits="userSpaceOnUse">
<stop stop-color="#4441EC"/>
<stop offset="1" stop-color="#804BF2"/>
</linearGradient>
<linearGradient id="paint19_linear_130_3262" x1="135.785" y1="128" x2="135.827" y2="132.619" gradientUnits="userSpaceOnUse">
<stop stop-color="#4441EC"/>
<stop offset="1" stop-color="#804BF2"/>
</linearGradient>
<linearGradient id="paint20_linear_130_3262" x1="135.785" y1="176" x2="135.827" y2="180.619" gradientUnits="userSpaceOnUse">
<stop stop-color="#4441EC"/>
<stop offset="1" stop-color="#804BF2"/>
</linearGradient>
<linearGradient id="paint21_linear_130_3262" x1="135.785" y1="224" x2="135.827" y2="228.619" gradientUnits="userSpaceOnUse">
<stop stop-color="#4441EC"/>
<stop offset="1" stop-color="#804BF2"/>
</linearGradient>
<linearGradient id="paint22_linear_130_3262" x1="135.785" y1="272" x2="135.827" y2="276.619" gradientUnits="userSpaceOnUse">
<stop stop-color="#4441EC"/>
<stop offset="1" stop-color="#804BF2"/>
</linearGradient>
<linearGradient id="paint23_linear_130_3262" x1="135.785" y1="320" x2="135.827" y2="324.619" gradientUnits="userSpaceOnUse">
<stop stop-color="#4441EC"/>
<stop offset="1" stop-color="#804BF2"/>
</linearGradient>
<linearGradient id="paint24_linear_130_3262" x1="135.785" y1="368" x2="135.827" y2="372.619" gradientUnits="userSpaceOnUse">
<stop stop-color="#4441EC"/>
<stop offset="1" stop-color="#804BF2"/>
</linearGradient>
<linearGradient id="paint25_linear_130_3262" x1="135.785" y1="416" x2="135.827" y2="420.619" gradientUnits="userSpaceOnUse">
<stop stop-color="#4441EC"/>
<stop offset="1" stop-color="#804BF2"/>
</linearGradient>
<linearGradient id="paint26_linear_130_3262" x1="135.785" y1="464" x2="135.827" y2="468.619" gradientUnits="userSpaceOnUse">
<stop stop-color="#4441EC"/>
<stop offset="1" stop-color="#804BF2"/>
</linearGradient>
<linearGradient id="paint27_linear_130_3262" x1="135.785" y1="512" x2="135.827" y2="516.619" gradientUnits="userSpaceOnUse">
<stop stop-color="#4441EC"/>
<stop offset="1" stop-color="#804BF2"/>
</linearGradient>
<linearGradient id="paint28_linear_130_3262" x1="135.785" y1="560" x2="135.827" y2="564.619" gradientUnits="userSpaceOnUse">
<stop stop-color="#4441EC"/>
<stop offset="1" stop-color="#804BF2"/>
</linearGradient>
<linearGradient id="paint29_linear_130_3262" x1="135.785" y1="-208" x2="638.394" y2="-135.303" gradientUnits="userSpaceOnUse">
<stop stop-color="#4441EC"/>
<stop offset="1" stop-color="#804BF2"/>
</linearGradient>
<clipPath id="clip0_130_3262">
<rect width="768" height="768" fill="white" transform="translate(-24 -208)"/>
</clipPath>
<clipPath id="clip1_130_3262">
<rect x="-24" y="-208" width="768" height="768" fill="white"/>
</clipPath>
<clipPath id="clip2_130_3262">
<rect x="-24" y="-208" width="768" height="768" fill="white"/>
</clipPath>
</defs>
</svg>
