<svg width="32" height="32" viewBox="0 0 32 32" fill="none" xmlns="http://www.w3.org/2000/svg">
<path opacity="0.4" d="M21.1797 9.25C19.4697 9.25 17.4297 9.9 17.4297 13V19C17.4297 22.1 19.4697 22.75 21.1797 22.75C22.8897 22.75 24.9297 22.1 24.9297 19V13C24.9297 9.9 22.8897 9.25 21.1797 9.25Z" fill="#F4EBFF"/>
<path opacity="0.4" d="M10.8203 9.25C9.11031 9.25 7.07031 9.9 7.07031 13V19C7.07031 22.1 9.11031 22.75 10.8203 22.75C12.5303 22.75 14.5703 22.1 14.5703 19V13C14.5703 9.9 12.5303 9.25 10.8203 9.25Z" fill="#F4EBFF"/>
<path d="M17.4303 15.25H14.5703V16.75H17.4303V15.25Z" fill="#F4EBFF"/>
<path d="M26.5 19.25C26.09 19.25 25.75 18.91 25.75 18.5V13.5C25.75 13.09 26.09 12.75 26.5 12.75C26.91 12.75 27.25 13.09 27.25 13.5V18.5C27.25 18.91 26.91 19.25 26.5 19.25Z" fill="#F4EBFF"/>
<path d="M5.5 19.25C5.09 19.25 4.75 18.91 4.75 18.5V13.5C4.75 13.09 5.09 12.75 5.5 12.75C5.91 12.75 6.25 13.09 6.25 13.5V18.5C6.25 18.91 5.91 19.25 5.5 19.25Z" fill="#F4EBFF"/>
</svg>
