<svg width="25" height="25" viewBox="0 0 25 25" fill="none" xmlns="http://www.w3.org/2000/svg">
<path opacity="0.4" d="M12.5 22.6C18.0228 22.6 22.5 18.1229 22.5 12.6C22.5 7.07716 18.0228 2.60001 12.5 2.60001C6.97715 2.60001 2.5 7.07716 2.5 12.6C2.5 18.1229 6.97715 22.6 12.5 22.6Z" fill="white"/>
<path d="M17.2586 12.53C16.8386 12.46 16.4686 12.76 16.4086 13.17C16.2886 14.04 15.8986 14.82 15.2986 15.42C13.9186 16.8 11.7786 16.94 10.2286 15.87H10.9786C11.3886 15.87 11.7286 15.53 11.7286 15.12C11.7286 14.71 11.3886 14.37 10.9786 14.37H8.30859C7.89859 14.37 7.55859 14.71 7.55859 15.12V17.79C7.55859 18.2 7.89859 18.54 8.30859 18.54C8.71859 18.54 9.05859 18.2 9.05859 17.79V16.85C10.0586 17.66 11.2686 18.09 12.4886 18.09C13.8886 18.09 15.2886 17.56 16.3586 16.49C17.1886 15.66 17.7186 14.59 17.8886 13.39C17.9586 12.96 17.6686 12.58 17.2586 12.53Z" fill="white"/>
<path d="M7.83944 12.68C8.20944 12.68 8.52943 12.41 8.57943 12.04C8.69943 11.17 9.08944 10.39 9.68944 9.79001C11.0694 8.41001 13.2095 8.27 14.7595 9.34H14.0095C13.5995 9.34 13.2595 9.68 13.2595 10.09C13.2595 10.5 13.5995 10.84 14.0095 10.84H16.6794C17.0894 10.84 17.4294 10.5 17.4294 10.09V7.42001C17.4294 7.01001 17.0894 6.67001 16.6794 6.67001C16.2694 6.67001 15.9294 7.01001 15.9294 7.42001V8.36002C13.7794 6.62002 10.6295 6.73 8.63946 8.72C7.80946 9.55 7.27943 10.62 7.10943 11.82C7.04943 12.23 7.33944 12.61 7.74944 12.67C7.76944 12.68 7.80944 12.68 7.83944 12.68Z" fill="white"/>
</svg>
