<svg width="52" height="53" viewBox="0 0 52 53" fill="none" xmlns="http://www.w3.org/2000/svg">
<g filter="url(#filter0_d_142_427)">
<rect x="2" y="1.5" width="48" height="48" rx="10" fill="#1A102F"/>
<path opacity="0.4" d="M31.53 20.77C31.46 20.76 31.39 20.76 31.32 20.77C29.77 20.72 28.54 19.45 28.54 17.89C28.54 16.3 29.83 15 31.43 15C33.02 15 34.32 16.29 34.32 17.89C34.31 19.45 33.08 20.72 31.53 20.77Z" fill="#F4EBFF"/>
<path opacity="0.4" d="M34.7896 27.6999C33.6696 28.4499 32.0996 28.7299 30.6496 28.5399C31.0296 27.7199 31.2296 26.8099 31.2396 25.8499C31.2396 24.8499 31.0196 23.8999 30.5996 23.0699C32.0796 22.8699 33.6496 23.1499 34.7796 23.8999C36.3596 24.9399 36.3596 26.6499 34.7896 27.6999Z" fill="#F4EBFF"/>
<path opacity="0.4" d="M20.4404 20.77C20.5104 20.76 20.5804 20.76 20.6504 20.77C22.2004 20.72 23.4304 19.45 23.4304 17.89C23.4304 16.3 22.1404 15 20.5404 15C18.9504 15 17.6504 16.29 17.6504 17.89C17.6604 19.45 18.8904 20.72 20.4404 20.77Z" fill="#F4EBFF"/>
<path opacity="0.4" d="M20.5501 25.8501C20.5501 26.8201 20.7601 27.7401 21.1401 28.5701C19.7301 28.7201 18.2601 28.4201 17.1801 27.7101C15.6001 26.6601 15.6001 24.9501 17.1801 23.9001C18.2501 23.1801 19.7601 22.8901 21.1801 23.0501C20.7701 23.8901 20.5501 24.8401 20.5501 25.8501Z" fill="#F4EBFF"/>
<path d="M26.1198 28.87C26.0398 28.86 25.9498 28.86 25.8598 28.87C24.0198 28.81 22.5498 27.3 22.5498 25.44C22.5498 23.54 24.0798 22 25.9898 22C27.8898 22 29.4298 23.54 29.4298 25.44C29.4298 27.3 27.9698 28.81 26.1198 28.87Z" fill="#F4EBFF"/>
<path d="M22.8698 30.9401C21.3598 31.9501 21.3598 33.6101 22.8698 34.6101C24.5898 35.7601 27.4098 35.7601 29.1298 34.6101C30.6398 33.6001 30.6398 31.9401 29.1298 30.9401C27.4198 29.7901 24.5998 29.7901 22.8698 30.9401Z" fill="#F4EBFF"/>
</g>
<defs>
<filter id="filter0_d_142_427" x="0" y="0.5" width="52" height="52" filterUnits="userSpaceOnUse" color-interpolation-filters="sRGB">
<feFlood flood-opacity="0" result="BackgroundImageFix"/>
<feColorMatrix in="SourceAlpha" type="matrix" values="0 0 0 0 0 0 0 0 0 0 0 0 0 0 0 0 0 0 127 0" result="hardAlpha"/>
<feOffset dy="1"/>
<feGaussianBlur stdDeviation="1"/>
<feColorMatrix type="matrix" values="0 0 0 0 0.0627451 0 0 0 0 0.0941176 0 0 0 0 0.156863 0 0 0 0.05 0"/>
<feBlend mode="normal" in2="BackgroundImageFix" result="effect1_dropShadow_142_427"/>
<feBlend mode="normal" in="SourceGraphic" in2="effect1_dropShadow_142_427" result="shape"/>
</filter>
</defs>
</svg>
